<svg xmlns="http://www.w3.org/2000/svg" fill="none" viewBox="0 0 273 273">
    <path
        d="M94.08 107.44h80.76v10.08c0 11.36-1.92 21.96-5.76 31.8-3.76 9.84-9.16 18.48-16.2 25.92-7.04 7.44-15.44 13.24-25.2 17.4-9.76 4.16-20.56 6.24-32.4 6.24-12.24 0-23.36-2.08-33.36-6.24C52 188.4 43.44 182.52 36.24 175c-7.2-7.52-12.72-16.24-16.56-26.16-3.84-10-5.76-20.72-5.76-32.16 0-11.36 1.92-22 5.76-31.92 3.84-10 9.36-18.72 16.56-26.16 7.2-7.52 15.76-13.36 25.68-17.52 10-4.24 21.12-6.36 33.36-6.36 10 0 18.8 1.08 26.4 3.24 7.68 2.16 14.28 5.04 19.8 8.64 5.52 3.6 10.2 7.56 14.04 11.88 3.84 4.24 7.04 8.4 9.6 12.48l-34.08 16.08c-3.28-5.04-7.76-9.44-13.44-13.2-5.6-3.76-13.04-5.64-22.32-5.64-6.48 0-12.44 1.28-17.88 3.84A42.85 42.85 0 0063.48 82.6c-3.92 4.4-6.96 9.56-9.12 15.48-2.08 5.84-3.12 12.04-3.12 18.6 0 6.64 1.04 12.88 3.12 18.72 2.16 5.84 5.2 11 9.12 15.48 3.92 4.48 8.56 8 13.92 10.56 5.44 2.48 11.4 3.72 17.88 3.72 5.68 0 10.84-.72 15.48-2.16 4.64-1.44 8.64-3.52 12-6.24 3.44-2.72 6.12-5.92 8.04-9.6 2-3.76 3.2-7.88 3.6-12.36H94.08v-27.36z"
        fill="#EEF5F7" />
    <path
        d="M166.32 78.6h35.64L264.48 237H226.2l-11.52-31.8h-60.96L142.08 237h-38.4l62.64-158.4zm-.6 95.16h37.08l-18.36-51.96h-.36l-18.36 51.96z"
        fill="#EEF5F7" />
    <style>
        path {
            fill: #000;
        }

        @media (prefers-color-scheme: dark) {
            path {
                fill: #FFF;
            }
        }
    </style>
</svg>